<svg width="35" height="28" viewBox="0 0 35 28" fill="none" xmlns="http://www.w3.org/2000/svg">
<path d="M31.2831 0.0280571L31.4374 0.0319633C33.0227 0.112088 34.2831 1.42283 34.2831 3.02806C34.2831 4.63329 33.0227 5.94403 31.4374 6.02415L31.2831 6.02806H3.29285C1.63599 6.02806 0.292847 4.68491 0.292847 3.02806C0.292847 1.3712 1.63599 0.0280571 3.29285 0.0280571H31.2831Z" fill="#EEEEEE"/>
<path d="M31.2831 10.8163L31.4374 10.8203C33.0227 10.9004 34.2831 12.2111 34.2831 13.8163C34.2831 15.4216 33.0227 16.7323 31.4374 16.8124L31.2831 16.8163H3.29285C1.63599 16.8163 0.292847 15.4732 0.292847 13.8163C0.292847 12.1595 1.63599 10.8163 3.29285 10.8163H31.2831Z" fill="#EEEEEE"/>
<path d="M31.2831 21.6046L31.4374 21.6085C33.0227 21.6887 34.2831 22.9994 34.2831 24.6046C34.2831 26.2099 33.0227 27.5206 31.4374 27.6007L31.2831 27.6046H3.29285C1.63599 27.6046 0.292847 26.2615 0.292847 24.6046C0.292847 22.9478 1.63599 21.6046 3.29285 21.6046H31.2831Z" fill="#EEEEEE"/>
</svg>
