<svg width="47" height="47" viewBox="0 0 47 47" fill="none" xmlns="http://www.w3.org/2000/svg">
<path d="M14.5154 21.3161L14.7703 21.3288C16.0311 21.4567 17.0154 22.5216 17.0154 23.8161C17.0154 25.1107 16.0311 26.1756 14.7703 26.3034L14.5154 26.3161L3.15112 26.3161C1.77041 26.3161 0.651123 25.1969 0.651123 23.8161C0.651123 22.4354 1.77041 21.3161 3.15112 21.3161L14.5154 21.3161Z" fill="#494848"/>
<path d="M44.0071 21.3162L44.262 21.3289C45.5228 21.4567 46.5071 22.5216 46.5071 23.8162C46.5071 25.1107 45.5228 26.1756 44.262 26.3035L44.0071 26.3162L32.6428 26.3162C31.2621 26.3162 30.1428 25.1969 30.1428 23.8162C30.1428 22.4354 31.2621 21.3162 32.6428 21.3162L44.0071 21.3162Z" fill="#494848"/>
<path d="M26.0789 14.7527L26.0662 15.0075C25.9383 16.2684 24.8734 17.2527 23.5789 17.2527C22.2843 17.2527 21.2194 16.2684 21.0916 15.0075L21.0789 14.7527V3.38841C21.0789 2.0077 22.1981 0.888409 23.5789 0.888409C24.9596 0.888409 26.0789 2.0077 26.0789 3.38841V14.7527Z" fill="#494848"/>
<path d="M26.0789 44.2443L26.0662 44.4992C25.9383 45.76 24.8734 46.7443 23.5789 46.7443C22.2843 46.7443 21.2194 45.76 21.0916 44.4992L21.0789 44.2443V32.88C21.0789 31.4993 22.1981 30.38 23.5789 30.38C24.9596 30.38 26.0789 31.4993 26.0789 32.88V44.2443Z" fill="#494848"/>
<path d="M34.1536 23.8157C34.1533 17.9757 29.4185 13.2415 23.5784 13.2415C17.7386 13.2417 13.0045 17.9758 13.0042 23.8157C13.0042 29.6557 17.7384 34.3906 23.5784 34.3908V40.3908L23.1507 40.3849C14.3367 40.1614 7.23319 33.0575 7.01013 24.2434L7.00427 23.8157C7.00449 14.6621 14.4249 7.24175 23.5784 7.24152L24.0061 7.24738C32.9624 7.47404 40.1533 14.8049 40.1535 23.8157L40.1477 24.2434C39.921 33.1998 32.5894 40.3908 23.5784 40.3908V34.3908C29.4186 34.3908 34.1536 29.6558 34.1536 23.8157Z" fill="#494848"/>
</svg>
