<svg width="52" height="92" viewBox="0 0 52 92" fill="none" xmlns="http://www.w3.org/2000/svg">
<path d="M6.12891 91.0673L5.97461 91.0634C4.38969 90.9828 3.12891 89.6722 3.12891 88.0673C3.12891 86.4624 4.38969 85.1518 5.97461 85.0712L6.12891 85.0673H11.4658C13.1227 85.0673 14.4658 86.4104 14.4658 88.0673C14.4658 89.7242 13.1227 91.0673 11.4658 91.0673H6.12891Z" fill="#EAEAEA"/>
<path d="M9.1294 88.0669L9.12549 88.2212C9.04538 89.8065 7.73414 91.0673 6.12891 91.0673C4.52367 91.0673 3.21342 89.8065 3.1333 88.2212L3.12891 88.0673L3.1294 48.5122C3.1294 46.8554 4.47254 45.5122 6.1294 45.5122C7.78625 45.5122 9.1294 46.8554 9.1294 48.5122L9.1294 88.0669Z" fill="#EAEAEA"/>
<path d="M21.4169 29.0379L21.5446 28.9494C22.8716 28.0792 24.6621 28.3938 25.6092 29.6895C26.5563 30.9851 26.3127 32.7866 25.0807 33.787L24.9577 33.8818L10.5681 44.4004C9.23046 45.3782 7.3535 45.0865 6.37574 43.7489C5.39798 42.4113 5.68968 40.5343 7.02727 39.5565L21.4169 29.0379Z" fill="#EAEAEA"/>
<path d="M22.8183 37.1863L22.766 37.2747C22.4849 37.6965 21.9244 37.8447 21.4667 37.6025C21.009 37.3603 20.8162 36.8135 21.0069 36.3438L21.0505 36.2509L26.6926 25.5882C26.9509 25.1 27.5561 24.9137 28.0442 25.172C28.5324 25.4303 28.7187 26.0354 28.4604 26.5236L22.8183 37.1863Z" fill="#EAEAEA"/>
<path d="M45.688 73.3339L45.6919 73.1796C45.7722 71.5945 47.0829 70.3339 48.688 70.3339C50.2931 70.3339 51.6038 71.5945 51.6841 73.1796L51.688 73.3339V88.0673C51.688 89.7242 50.3448 91.0673 48.688 91.0673C47.0311 91.0673 45.688 89.7242 45.688 88.0673V73.3339Z" fill="#EAEAEA"/>
<path d="M0.129395 25.5654L0.137207 25.2568C0.297727 22.0865 2.91915 19.5655 6.12939 19.5654C9.33966 19.5654 11.9611 22.0865 12.1216 25.2568L12.1294 25.5654L12.1294 45.5771C12.1294 48.8908 9.44309 51.5771 6.1294 51.5771C2.81569 51.5771 0.129395 48.8908 0.129395 45.5771L0.129395 25.5654Z" fill="#EAEAEA"/>
<path d="M19.7374 8.74186C19.7374 13.3101 16.0341 17.0134 11.4659 17.0134C6.89763 17.0134 3.19434 13.3101 3.19434 8.74186C3.19434 4.17361 6.89763 0.470314 11.4659 0.470314C16.0341 0.470314 19.7374 4.17361 19.7374 8.74186Z" fill="#EAEAEA"/>
</svg>
